<?xml version="1.0" encoding="utf-8"?>
<!-- Generator: Adobe Illustrator 27.0.1, SVG Export Plug-In . SVG Version: 6.00 Build 0)  -->
<svg version="1.1" id="Layer_1" xmlns="http://www.w3.org/2000/svg" xmlns:xlink="http://www.w3.org/1999/xlink" x="0px" y="0px"
	 viewBox="0 0 425.2 79.37" style="enable-background:new 0 0 425.2 79.37;" xml:space="preserve">
<style type="text/css">
	.st0{fill:#4D4D4F;}
	.st1{fill:#EF4141;}
</style>
<g>
	<g>
		<path class="st0" d="M235.24,46.86c-3.7-3.31-9.65-6.69-17.85-10.14c-5.61-2.3-9.71-4.15-12.3-5.55c-2.59-1.4-4.6-3.09-6.04-5.07
			c-1.44-1.98-2.16-4.51-2.16-7.61c0-4.75,1.6-8.34,4.8-10.79c3.2-2.44,7.82-3.67,13.86-3.67c6.76,0,11.99,1.48,15.7,4.42
			c3.7,2.95,5.55,6.87,5.55,11.76v2.37c0,0.72,0.36,1.08,1.08,1.08h1.08c0.72,0,1.08-0.36,1.08-1.08V20c0-5.83-2.1-10.44-6.31-13.86
			c-4.21-3.41-10.16-5.12-17.85-5.12c-7.12,0-12.59,1.51-16.4,4.53c-3.81,3.02-5.72,7.41-5.72,13.16c0,3.6,0.79,6.55,2.37,8.85
			c1.58,2.3,3.76,4.25,6.53,5.83c2.77,1.58,6.99,3.6,12.67,6.04c5.68,2.45,10.09,4.64,13.21,6.58c3.13,1.94,5.41,3.99,6.85,6.15
			c1.44,2.16,2.16,4.71,2.16,7.66c0,4.82-1.75,8.6-5.23,11.33c-3.49,2.73-8.5,4.1-15.05,4.1c-6.9,0-12.33-1.46-16.29-4.37
			c-3.96-2.91-5.93-6.81-5.93-11.7V55.6c0-0.72-0.36-1.08-1.08-1.08h-0.86c-0.72,0-1.08,0.36-1.08,1.08v3.77
			c0,5.76,2.23,10.34,6.69,13.75c4.46,3.42,10.57,5.13,18.34,5.13c7.55,0,13.39-1.69,17.53-5.07c4.13-3.38,6.2-7.91,6.2-13.59
			C240.8,54.41,238.95,50.17,235.24,46.86z"/>
		<path class="st0" d="M293.44,74.36h-39.59c-0.29,0-0.43-0.14-0.43-0.43V2.96c0-0.72-0.36-1.08-1.08-1.08h-1.08
			c-0.72,0-1.08,0.36-1.08,1.08v73.35c0,0.72,0.36,1.08,1.08,1.08h42.18c0.72,0,1.08-0.36,1.08-1.08v-0.86
			C294.52,74.73,294.16,74.36,293.44,74.36z"/>
		<path class="st0" d="M305.3,1.87h-1.08c-0.72,0-1.08,0.36-1.08,1.08v73.35c0,0.72,0.36,1.08,1.08,1.08h1.08
			c0.72,0,1.08-0.36,1.08-1.08V2.96C306.38,2.24,306.02,1.87,305.3,1.87z"/>
		<path class="st0" d="M352.88,3.82c-3.6-1.87-7.73-2.81-12.41-2.81c-4.75,0-8.92,0.94-12.51,2.81c-3.6,1.87-6.38,4.49-8.36,7.88
			c-1.98,3.38-2.97,7.26-2.97,11.65V55.7c0,4.46,0.99,8.41,2.97,11.86c1.98,3.45,4.76,6.11,8.36,7.98c3.6,1.87,7.77,2.81,12.51,2.81
			c4.67,0,8.81-0.94,12.41-2.81c3.6-1.87,6.38-4.51,8.36-7.93c1.98-3.42,2.97-7.35,2.97-11.81c0-0.65-0.36-0.97-1.08-0.97
			l-1.08-0.11c-0.72,0-1.08,0.36-1.08,1.08v0.21c0,5.76-1.89,10.41-5.66,13.97c-3.77,3.56-8.72,5.34-14.83,5.34
			c-6.19,0-11.17-1.78-14.94-5.34c-3.77-3.56-5.66-8.22-5.66-13.97V23.23c0-5.75,1.89-10.39,5.66-13.92
			c3.77-3.52,8.75-5.29,14.94-5.29c6.18,0,11.14,1.76,14.89,5.29c3.74,3.53,5.61,8.16,5.61,13.92v0.32c0,0.65,0.36,0.97,1.08,0.97
			h1.08c0.72,0,1.08-0.36,1.08-1.08v-0.11c0-4.39-0.99-8.27-2.97-11.65C359.26,8.31,356.47,5.69,352.88,3.82z"/>
		<path class="st0" d="M424.07,76.09l-30.42-43.04c-0.14-0.29-0.14-0.5,0-0.65l27.62-29.23c0.29-0.36,0.38-0.66,0.27-0.92
			c-0.11-0.25-0.38-0.38-0.81-0.38h-1.19c-0.5,0-0.94,0.18-1.3,0.54l-39.37,40.78c-0.15,0.14-0.27,0.18-0.38,0.11
			c-0.11-0.07-0.16-0.18-0.16-0.32V2.96c0-0.72-0.36-1.08-1.08-1.08h-1.08c-0.72,0-1.08,0.36-1.08,1.08v73.35
			c0,0.72,0.36,1.08,1.08,1.08h1.08c0.72,0,1.08-0.36,1.08-1.08V48.15c0-0.22,0.07-0.39,0.22-0.54l12.3-12.08
			c0.07-0.07,0.18-0.11,0.32-0.11s0.25,0.07,0.32,0.22l29.13,41.1c0.29,0.43,0.72,0.65,1.29,0.65h1.51c0.29,0,0.5-0.07,0.65-0.22
			c0.14-0.14,0.22-0.28,0.22-0.43C424.29,76.45,424.21,76.24,424.07,76.09z"/>
	</g>
	<g>
		<g>
			<path class="st1" d="M105.66,17.35h14.2c-0.54-1.59-1.21-3.11-2.12-4.52c-2.23-3.45-5.38-6.13-9.44-8.04
				c-0.84-0.4-1.73-0.73-2.63-1.04V17.35z"/>
			<path class="st1" d="M101.6,21.41V2.63c-2.34-0.46-4.83-0.7-7.49-0.7H67.14c-0.36,0-0.67,0.13-0.92,0.38
				c-0.25,0.25-0.38,0.56-0.38,0.92v72.92c0,0.36,0.12,0.66,0.38,0.92c0.25,0.25,0.56,0.38,0.92,0.38h26.97
				c5.39,0,10.12-0.95,14.18-2.86c4.06-1.9,7.21-4.58,9.44-8.04c2.23-3.45,3.34-7.44,3.34-11.97V24.8c0-1.17-0.08-2.3-0.23-3.39
				H101.6z"/>
		</g>
		<path class="st1" d="M184.45,14.6c-0.25,0.25-0.56,0.38-0.92,0.38h-35.28c-0.36,0-0.54,0.18-0.54,0.54v16.72
			c0,0.36,0.18,0.54,0.54,0.54h23.19c0.36,0,0.66,0.13,0.92,0.38c0.25,0.25,0.38,0.56,0.38,0.92v10.46c0,0.36-0.13,0.67-0.38,0.92
			c-0.25,0.25-0.56,0.38-0.92,0.38h-23.19c-0.36,0-0.54,0.18-0.54,0.54v29.77c0,0.36-0.13,0.66-0.38,0.92
			c-0.25,0.25-0.56,0.38-0.92,0.38h-12.62c-0.36,0-0.67-0.12-0.92-0.38c-0.25-0.25-0.38-0.55-0.38-0.92V3.22
			c0-0.36,0.13-0.66,0.38-0.92s0.56-0.38,0.92-0.38h49.73c0.36,0,0.66,0.13,0.92,0.38s0.38,0.56,0.38,0.92v10.46
			C184.83,14.05,184.71,14.35,184.45,14.6z"/>
		<path class="st1" d="M45.14,4.73c3.6,1.94,6.38,4.69,8.36,8.25c1.98,3.56,2.97,7.64,2.97,12.24c0,4.53-1.03,8.52-3.07,11.97
			c-2.05,3.45-4.93,6.13-8.63,8.04c-3.7,1.91-7.97,2.86-12.78,2.86H16.66c-0.36,0-0.54,0.18-0.54,0.54v27.51
			c0,0.36-0.13,0.66-0.38,0.92c-0.25,0.25-0.56,0.38-0.92,0.38H2.21c-0.36,0-0.67-0.12-0.92-0.38c-0.25-0.25-0.38-0.55-0.38-0.92
			V3.12c0-0.36,0.12-0.66,0.38-0.92c0.25-0.25,0.56-0.38,0.92-0.38h30.42C37.37,1.82,41.54,2.79,45.14,4.73z M38.34,33.05
			c2.01-1.91,3.02-4.4,3.02-7.5c0-3.16-1.01-5.72-3.02-7.66c-2.01-1.94-4.68-2.91-7.98-2.91h-13.7c-0.36,0-0.54,0.18-0.54,0.54
			v19.85c0,0.36,0.18,0.54,0.54,0.54h13.7C33.67,35.91,36.33,34.96,38.34,33.05z"/>
	</g>
</g>
</svg>
