<?xml version="1.0" encoding="utf-8"?>
<!-- Generator: Adobe Illustrator 27.0.1, SVG Export Plug-In . SVG Version: 6.00 Build 0)  -->
<svg version="1.1" id="Layer_1" xmlns="http://www.w3.org/2000/svg" xmlns:xlink="http://www.w3.org/1999/xlink" x="0px" y="0px"
	 viewBox="0 0 103.75 141.73" style="enable-background:new 0 0 103.75 141.73;" xml:space="preserve">
<style type="text/css">
	.st0{fill:#EF4141;}
</style>
<path class="st0" d="M101.32,29.02h-26.6V3.55c1.69,0.59,3.35,1.2,4.93,1.95c7.61,3.57,13.5,8.59,17.69,15.06
	C99.05,23.19,100.31,26.04,101.32,29.02z M103.18,36.62H67.12V1.45c-4.38-0.87-9.05-1.31-14.03-1.31H2.57
	c-0.68,0-1.25,0.24-1.72,0.71C0.38,1.32,0.14,1.89,0.14,2.56v136.61c0,0.68,0.23,1.24,0.71,1.72c0.47,0.48,1.04,0.71,1.72,0.71
	h50.52c10.1,0,18.96-1.78,26.57-5.36c7.61-3.57,13.5-8.59,17.69-15.06c4.17-6.46,6.26-13.94,6.26-22.43V42.98
	C103.61,40.79,103.46,38.67,103.18,36.62z"/>
</svg>
