<svg xmlns="http://www.w3.org/2000/svg" viewBox="0 0 425.2 79.37">
  <path d="M235.24 46.86c-3.7-3.31-9.65-6.69-17.85-10.14-5.61-2.3-9.71-4.15-12.3-5.55-2.59-1.4-4.6-3.09-6.04-5.07-1.44-1.98-2.16-4.51-2.16-7.61 0-4.75 1.6-8.34 4.8-10.79 3.2-2.44 7.82-3.67 13.86-3.67 6.76 0 11.99 1.48 15.7 4.42 3.7 2.95 5.55 6.87 5.55 11.76v2.37c0 .72.36 1.08 1.08 1.08h1.08c.72 0 1.08-.36 1.08-1.08V20c0-5.83-2.1-10.44-6.31-13.86-4.21-3.41-10.16-5.12-17.85-5.12-7.12 0-12.59 1.51-16.4 4.53-3.81 3.02-5.72 7.41-5.72 13.16 0 3.6.79 6.55 2.37 8.85s3.76 4.25 6.53 5.83c2.77 1.58 6.99 3.6 12.67 6.04 5.68 2.45 10.09 4.64 13.21 6.58 3.13 1.94 5.41 3.99 6.85 6.15 1.44 2.16 2.16 4.71 2.16 7.66 0 4.82-1.75 8.6-5.23 11.33-3.49 2.73-8.5 4.1-15.05 4.1-6.9 0-12.33-1.46-16.29-4.37-3.96-2.91-5.93-6.81-5.93-11.7V55.6c0-.72-.36-1.08-1.08-1.08h-.86c-.72 0-1.08.36-1.08 1.08v3.77c0 5.76 2.23 10.34 6.69 13.75 4.46 3.42 10.57 5.13 18.34 5.13 7.55 0 13.39-1.69 17.53-5.07 4.13-3.38 6.2-7.91 6.2-13.59.01-5.18-1.84-9.42-5.55-12.73zm58.2 27.5h-39.59c-.29 0-.43-.14-.43-.43V2.96c0-.72-.36-1.08-1.08-1.08h-1.08c-.72 0-1.08.36-1.08 1.08v73.35c0 .72.36 1.08 1.08 1.08h42.18c.72 0 1.08-.36 1.08-1.08v-.86c0-.72-.36-1.09-1.08-1.09zM305.3 1.87h-1.08c-.72 0-1.08.36-1.08 1.08V76.3c0 .72.36 1.08 1.08 1.08h1.08c.72 0 1.08-.36 1.08-1.08V2.96c0-.72-.36-1.09-1.08-1.09zm47.58 1.95c-3.6-1.87-7.73-2.81-12.41-2.81-4.75 0-8.92.94-12.51 2.81-3.6 1.87-6.38 4.49-8.36 7.88-1.98 3.38-2.97 7.26-2.97 11.65V55.7c0 4.46.99 8.41 2.97 11.86 1.98 3.45 4.76 6.11 8.36 7.98 3.6 1.87 7.77 2.81 12.51 2.81 4.67 0 8.81-.94 12.41-2.81 3.6-1.87 6.38-4.51 8.36-7.93 1.98-3.42 2.97-7.35 2.97-11.81 0-.65-.36-.97-1.08-.97l-1.08-.11c-.72 0-1.08.36-1.08 1.08v.21c0 5.76-1.89 10.41-5.66 13.97-3.77 3.56-8.72 5.34-14.83 5.34-6.19 0-11.17-1.78-14.94-5.34-3.77-3.56-5.66-8.22-5.66-13.97V23.23c0-5.75 1.89-10.39 5.66-13.92 3.77-3.52 8.75-5.29 14.94-5.29 6.18 0 11.14 1.76 14.89 5.29 3.74 3.53 5.61 8.16 5.61 13.92v.32c0 .65.36.97 1.08.97h1.08c.72 0 1.08-.36 1.08-1.08v-.11c0-4.39-.99-8.27-2.97-11.65-1.99-3.37-4.78-5.99-8.37-7.86zm71.19 72.27-30.42-43.04c-.14-.29-.14-.5 0-.65l27.62-29.23c.29-.36.38-.66.27-.92-.11-.25-.38-.38-.81-.38h-1.19c-.5 0-.94.18-1.3.54l-39.37 40.78c-.15.14-.27.18-.38.11-.11-.07-.16-.18-.16-.32V2.96c0-.72-.36-1.08-1.08-1.08h-1.08c-.72 0-1.08.36-1.08 1.08v73.35c0 .72.36 1.08 1.08 1.08h1.08c.72 0 1.08-.36 1.08-1.08V48.15c0-.22.07-.39.22-.54l12.3-12.08c.07-.07.18-.11.32-.11s.25.07.32.22l29.13 41.1c.29.43.72.65 1.29.65h1.51c.29 0 .5-.07.65-.22.14-.14.22-.28.22-.43 0-.29-.08-.5-.22-.65z" fill="#4d4d4f"/>
  <path fill="#ef4141" d="M105.66 17.35h14.2c-.54-1.59-1.21-3.11-2.12-4.52-2.23-3.45-5.38-6.13-9.44-8.04-.84-.4-1.73-.73-2.63-1.04v13.6z"/>
  <path fill="#ef4141" d="M101.6 21.41V2.63c-2.34-.46-4.83-.7-7.49-.7H67.14c-.36 0-.67.13-.92.38s-.38.56-.38.92v72.92c0 .36.12.66.38.92.25.25.56.38.92.38h26.97c5.39 0 10.12-.95 14.18-2.86 4.06-1.9 7.21-4.58 9.44-8.04 2.23-3.45 3.34-7.44 3.34-11.97V24.8c0-1.17-.08-2.3-.23-3.39H101.6zm82.85-6.81c-.25.25-.56.38-.92.38h-35.28c-.36 0-.54.18-.54.54v16.72c0 .36.18.54.54.54h23.19c.36 0 .66.13.92.38.25.25.38.56.38.92v10.46c0 .36-.13.67-.38.92s-.56.38-.92.38h-23.19c-.36 0-.54.18-.54.54v29.77c0 .36-.13.66-.38.92-.25.25-.56.38-.92.38h-12.62c-.36 0-.67-.12-.92-.38-.25-.25-.38-.55-.38-.92V3.22c0-.36.13-.66.38-.92s.56-.38.92-.38h49.73c.36 0 .66.13.92.38s.38.56.38.92v10.46c.01.37-.11.67-.37.92zM45.14 4.73c3.6 1.94 6.38 4.69 8.36 8.25 1.98 3.56 2.97 7.64 2.97 12.24 0 4.53-1.03 8.52-3.07 11.97-2.05 3.45-4.93 6.13-8.63 8.04-3.7 1.91-7.97 2.86-12.78 2.86H16.66c-.36 0-.54.18-.54.54v27.51c0 .36-.13.66-.38.92-.25.25-.56.38-.92.38H2.21c-.36 0-.67-.12-.92-.38-.25-.25-.38-.55-.38-.92V3.12c0-.36.12-.66.38-.92.25-.25.56-.38.92-.38h30.42c4.74 0 8.91.97 12.51 2.91zm-6.8 28.32c2.01-1.91 3.02-4.4 3.02-7.5 0-3.16-1.01-5.72-3.02-7.66-2.01-1.94-4.68-2.91-7.98-2.91h-13.7c-.36 0-.54.18-.54.54v19.85c0 .36.18.54.54.54h13.7c3.31 0 5.97-.95 7.98-2.86z"/>
</svg>
